<mxfile host="app.diagrams.net" modified="2022-05-19T11:02:57.377Z" agent="5.0 (Windows NT 10.0; Win64; x64) AppleWebKit/537.36 (KHTML, like Gecko) Chrome/101.0.4951.67 Safari/537.36" etag="O96p3AZos9iflwJ7_UOF" version="17.4.1" type="github">
  <diagram id="VnsQA_d-72quKeOGZHbb" name="Page-1">
    <mxGraphModel dx="1231" dy="689" grid="1" gridSize="10" guides="1" tooltips="1" connect="1" arrows="1" fold="1" page="1" pageScale="1" pageWidth="850" pageHeight="1100" math="0" shadow="0">
      <root>
        <mxCell id="0" />
        <mxCell id="1" parent="0" />
        <mxCell id="Qatt-fRz_PvrAQTg_cCk-1" value="Input" style="swimlane;" vertex="1" parent="1">
          <mxGeometry x="80" y="40" width="280" height="600" as="geometry" />
        </mxCell>
        <mxCell id="Qatt-fRz_PvrAQTg_cCk-13" value="" style="edgeStyle=orthogonalEdgeStyle;rounded=0;orthogonalLoop=1;jettySize=auto;html=1;" edge="1" parent="Qatt-fRz_PvrAQTg_cCk-1" source="Qatt-fRz_PvrAQTg_cCk-4" target="Qatt-fRz_PvrAQTg_cCk-5">
          <mxGeometry relative="1" as="geometry" />
        </mxCell>
        <mxCell id="Qatt-fRz_PvrAQTg_cCk-4" value="Mulai" style="ellipse;whiteSpace=wrap;html=1;" vertex="1" parent="Qatt-fRz_PvrAQTg_cCk-1">
          <mxGeometry x="95" y="40" width="90" height="40" as="geometry" />
        </mxCell>
        <mxCell id="Qatt-fRz_PvrAQTg_cCk-5" value="masukan username dan password" style="rounded=0;whiteSpace=wrap;html=1;" vertex="1" parent="Qatt-fRz_PvrAQTg_cCk-1">
          <mxGeometry x="80" y="110" width="120" height="60" as="geometry" />
        </mxCell>
        <mxCell id="Qatt-fRz_PvrAQTg_cCk-6" value="Informasi :&lt;br&gt;&lt;div style=&quot;text-align: left&quot;&gt;&lt;span&gt;&lt;b&gt;Kurikulum&lt;/b&gt;&lt;/span&gt;&lt;/div&gt;&lt;div style=&quot;text-align: left&quot;&gt;&lt;span&gt;-matakuliah semua&lt;/span&gt;&lt;/div&gt;&lt;div style=&quot;text-align: left&quot;&gt;&lt;span&gt;-mata kuliah wajib&lt;/span&gt;&lt;/div&gt;&lt;div style=&quot;text-align: left&quot;&gt;&lt;span&gt;-matakuliah pilihan&lt;/span&gt;&lt;/div&gt;&lt;div style=&quot;text-align: left&quot;&gt;&lt;span&gt;&lt;b&gt;Bimbingan&lt;/b&gt;&lt;/span&gt;&lt;/div&gt;&lt;div style=&quot;text-align: left&quot;&gt;&lt;span&gt;-penelitian&lt;/span&gt;&lt;/div&gt;&lt;div style=&quot;text-align: left&quot;&gt;&lt;span&gt;-kerja praktik&lt;/span&gt;&lt;/div&gt;&lt;div style=&quot;text-align: left&quot;&gt;&lt;span&gt;-skripsi&lt;/span&gt;&lt;/div&gt;&lt;div style=&quot;text-align: left&quot;&gt;&lt;span&gt;&lt;b&gt;Dosen&lt;/b&gt;&lt;/span&gt;&lt;/div&gt;&lt;div style=&quot;text-align: left&quot;&gt;&lt;span&gt;-data&lt;/span&gt;&lt;/div&gt;&lt;div style=&quot;text-align: left&quot;&gt;&lt;span&gt;-komunikasi&lt;/span&gt;&lt;/div&gt;&lt;div style=&quot;text-align: left&quot;&gt;&lt;span&gt;&lt;b&gt;Mahasiswa&lt;/b&gt;&lt;/span&gt;&lt;/div&gt;&lt;div style=&quot;text-align: left&quot;&gt;&lt;span&gt;-data mahasiswa&lt;/span&gt;&lt;/div&gt;&lt;div style=&quot;text-align: left&quot;&gt;&lt;span&gt;-alumni&lt;/span&gt;&lt;/div&gt;&lt;div style=&quot;text-align: left&quot;&gt;&lt;span&gt;-e-modul&lt;/span&gt;&lt;/div&gt;" style="rounded=0;whiteSpace=wrap;html=1;" vertex="1" parent="Qatt-fRz_PvrAQTg_cCk-1">
          <mxGeometry x="30" y="330" width="170" height="260" as="geometry" />
        </mxCell>
        <mxCell id="Qatt-fRz_PvrAQTg_cCk-2" value="Proses" style="swimlane;" vertex="1" parent="1">
          <mxGeometry x="360" y="40" width="280" height="600" as="geometry" />
        </mxCell>
        <mxCell id="Qatt-fRz_PvrAQTg_cCk-7" value="periksa" style="rhombus;whiteSpace=wrap;html=1;" vertex="1" parent="Qatt-fRz_PvrAQTg_cCk-2">
          <mxGeometry x="100" y="40" width="80" height="80" as="geometry" />
        </mxCell>
        <mxCell id="Qatt-fRz_PvrAQTg_cCk-24" value="" style="edgeStyle=orthogonalEdgeStyle;rounded=0;orthogonalLoop=1;jettySize=auto;html=1;" edge="1" parent="Qatt-fRz_PvrAQTg_cCk-2" source="Qatt-fRz_PvrAQTg_cCk-8" target="Qatt-fRz_PvrAQTg_cCk-9">
          <mxGeometry relative="1" as="geometry" />
        </mxCell>
        <mxCell id="Qatt-fRz_PvrAQTg_cCk-8" value="proses mencari" style="rounded=0;whiteSpace=wrap;html=1;" vertex="1" parent="Qatt-fRz_PvrAQTg_cCk-2">
          <mxGeometry x="80" y="240" width="120" height="60" as="geometry" />
        </mxCell>
        <mxCell id="Qatt-fRz_PvrAQTg_cCk-21" value="" style="edgeStyle=orthogonalEdgeStyle;rounded=0;orthogonalLoop=1;jettySize=auto;html=1;" edge="1" parent="Qatt-fRz_PvrAQTg_cCk-2" source="Qatt-fRz_PvrAQTg_cCk-9" target="Qatt-fRz_PvrAQTg_cCk-10">
          <mxGeometry relative="1" as="geometry" />
        </mxCell>
        <mxCell id="Qatt-fRz_PvrAQTg_cCk-9" value="periksa" style="rhombus;whiteSpace=wrap;html=1;" vertex="1" parent="Qatt-fRz_PvrAQTg_cCk-2">
          <mxGeometry x="100" y="390" width="80" height="80" as="geometry" />
        </mxCell>
        <mxCell id="Qatt-fRz_PvrAQTg_cCk-10" value="database" style="rounded=0;whiteSpace=wrap;html=1;" vertex="1" parent="Qatt-fRz_PvrAQTg_cCk-2">
          <mxGeometry x="80" y="510" width="120" height="60" as="geometry" />
        </mxCell>
        <mxCell id="Qatt-fRz_PvrAQTg_cCk-3" value="Output" style="swimlane;" vertex="1" parent="1">
          <mxGeometry x="640" y="40" width="280" height="600" as="geometry" />
        </mxCell>
        <mxCell id="Qatt-fRz_PvrAQTg_cCk-30" value="" style="edgeStyle=orthogonalEdgeStyle;rounded=0;orthogonalLoop=1;jettySize=auto;html=1;" edge="1" parent="Qatt-fRz_PvrAQTg_cCk-3" source="Qatt-fRz_PvrAQTg_cCk-28">
          <mxGeometry relative="1" as="geometry">
            <mxPoint x="165" y="480" as="targetPoint" />
          </mxGeometry>
        </mxCell>
        <mxCell id="Qatt-fRz_PvrAQTg_cCk-28" value="Informasi :&lt;br&gt;&lt;div style=&quot;text-align: left&quot;&gt;&lt;span&gt;&lt;b&gt;Kurikulum&lt;/b&gt;&lt;/span&gt;&lt;/div&gt;&lt;div style=&quot;text-align: left&quot;&gt;&lt;span&gt;-matakuliah semua&lt;/span&gt;&lt;/div&gt;&lt;div style=&quot;text-align: left&quot;&gt;&lt;span&gt;-mata kuliah wajib&lt;/span&gt;&lt;/div&gt;&lt;div style=&quot;text-align: left&quot;&gt;&lt;span&gt;-matakuliah pilihan&lt;/span&gt;&lt;/div&gt;&lt;div style=&quot;text-align: left&quot;&gt;&lt;span&gt;&lt;b&gt;Bimbingan&lt;/b&gt;&lt;/span&gt;&lt;/div&gt;&lt;div style=&quot;text-align: left&quot;&gt;&lt;span&gt;-penelitian&lt;/span&gt;&lt;/div&gt;&lt;div style=&quot;text-align: left&quot;&gt;&lt;span&gt;-kerja praktik&lt;/span&gt;&lt;/div&gt;&lt;div style=&quot;text-align: left&quot;&gt;&lt;span&gt;-skripsi&lt;/span&gt;&lt;/div&gt;&lt;div style=&quot;text-align: left&quot;&gt;&lt;span&gt;&lt;b&gt;Dosen&lt;/b&gt;&lt;/span&gt;&lt;/div&gt;&lt;div style=&quot;text-align: left&quot;&gt;&lt;span&gt;-data&lt;/span&gt;&lt;/div&gt;&lt;div style=&quot;text-align: left&quot;&gt;&lt;span&gt;-komunikasi&lt;/span&gt;&lt;/div&gt;&lt;div style=&quot;text-align: left&quot;&gt;&lt;span&gt;&lt;b&gt;Mahasiswa&lt;/b&gt;&lt;/span&gt;&lt;/div&gt;&lt;div style=&quot;text-align: left&quot;&gt;&lt;span&gt;-data mahasiswa&lt;/span&gt;&lt;/div&gt;&lt;div style=&quot;text-align: left&quot;&gt;&lt;span&gt;-alumni&lt;/span&gt;&lt;/div&gt;&lt;div style=&quot;text-align: left&quot;&gt;&lt;span&gt;-e-modul&lt;/span&gt;&lt;/div&gt;" style="rounded=0;whiteSpace=wrap;html=1;" vertex="1" parent="Qatt-fRz_PvrAQTg_cCk-3">
          <mxGeometry x="80" y="40" width="170" height="260" as="geometry" />
        </mxCell>
        <mxCell id="Qatt-fRz_PvrAQTg_cCk-31" value="Selesai" style="ellipse;whiteSpace=wrap;html=1;" vertex="1" parent="Qatt-fRz_PvrAQTg_cCk-3">
          <mxGeometry x="120" y="480" width="90" height="40" as="geometry" />
        </mxCell>
        <mxCell id="Qatt-fRz_PvrAQTg_cCk-15" value="" style="edgeStyle=orthogonalEdgeStyle;rounded=0;orthogonalLoop=1;jettySize=auto;html=1;entryX=1;entryY=0.5;entryDx=0;entryDy=0;" edge="1" parent="1" source="Qatt-fRz_PvrAQTg_cCk-7" target="Qatt-fRz_PvrAQTg_cCk-5">
          <mxGeometry relative="1" as="geometry">
            <mxPoint x="390" y="170" as="targetPoint" />
          </mxGeometry>
        </mxCell>
        <mxCell id="Qatt-fRz_PvrAQTg_cCk-17" value="" style="edgeStyle=orthogonalEdgeStyle;rounded=0;orthogonalLoop=1;jettySize=auto;html=1;" edge="1" parent="1" source="Qatt-fRz_PvrAQTg_cCk-7" target="Qatt-fRz_PvrAQTg_cCk-6">
          <mxGeometry relative="1" as="geometry">
            <mxPoint x="240" y="330" as="targetPoint" />
            <Array as="points">
              <mxPoint x="500" y="200" />
              <mxPoint x="310" y="200" />
              <mxPoint x="310" y="310" />
              <mxPoint x="190" y="310" />
            </Array>
          </mxGeometry>
        </mxCell>
        <mxCell id="Qatt-fRz_PvrAQTg_cCk-19" value="" style="edgeStyle=orthogonalEdgeStyle;rounded=0;orthogonalLoop=1;jettySize=auto;html=1;entryX=1;entryY=0.5;entryDx=0;entryDy=0;" edge="1" parent="1" source="Qatt-fRz_PvrAQTg_cCk-9" target="Qatt-fRz_PvrAQTg_cCk-6">
          <mxGeometry relative="1" as="geometry">
            <mxPoint x="290" y="540" as="targetPoint" />
          </mxGeometry>
        </mxCell>
        <mxCell id="Qatt-fRz_PvrAQTg_cCk-25" value="" style="endArrow=none;html=1;rounded=0;entryX=0;entryY=0.5;entryDx=0;entryDy=0;exitX=1;exitY=0.25;exitDx=0;exitDy=0;" edge="1" parent="1" source="Qatt-fRz_PvrAQTg_cCk-6" target="Qatt-fRz_PvrAQTg_cCk-8">
          <mxGeometry width="50" height="50" relative="1" as="geometry">
            <mxPoint x="390" y="340" as="sourcePoint" />
            <mxPoint x="440" y="290" as="targetPoint" />
            <Array as="points">
              <mxPoint x="320" y="435" />
              <mxPoint x="340" y="435" />
              <mxPoint x="340" y="310" />
              <mxPoint x="370" y="310" />
            </Array>
          </mxGeometry>
        </mxCell>
        <mxCell id="Qatt-fRz_PvrAQTg_cCk-26" value="" style="endArrow=none;html=1;rounded=0;entryX=0;entryY=0.5;entryDx=0;entryDy=0;exitX=1;exitY=0.5;exitDx=0;exitDy=0;" edge="1" parent="1" source="Qatt-fRz_PvrAQTg_cCk-10">
          <mxGeometry width="50" height="50" relative="1" as="geometry">
            <mxPoint x="390" y="440" as="sourcePoint" />
            <mxPoint x="719.9999999999998" y="154.9999999999999" as="targetPoint" />
            <Array as="points">
              <mxPoint x="670" y="580" />
              <mxPoint x="670" y="155" />
            </Array>
          </mxGeometry>
        </mxCell>
      </root>
    </mxGraphModel>
  </diagram>
</mxfile>
